<svg width="85" height="85" viewBox="0 0 85 85" fill="none" xmlns="http://www.w3.org/2000/svg">
<g clip-path="url(#clip0_1_12709)">
<mask id="mask0_1_12709" style="mask-type:luminance" maskUnits="userSpaceOnUse" x="0" y="0" width="85" height="85">
<path d="M84.1763 0.207031H0.0927734V84.2906H84.1763V0.207031Z" fill="white"/>
</mask>
<g mask="url(#mask0_1_12709)">
<path d="M23.8042 40.5665C23.8042 41.5755 23.8883 42.4164 24.1405 43.089C24.3928 43.6776 24.645 44.3503 25.0654 45.1071C25.1495 45.2752 25.2336 45.5275 25.2336 45.7797C25.2336 46.032 25.0654 46.3683 24.7291 46.6206L22.9633 47.7977C22.7111 47.9659 22.4588 48.05 22.2066 48.05C21.9543 48.05 21.618 47.8818 21.3657 47.6296C21.0294 47.2091 20.609 46.7887 20.3567 46.2842C20.0204 45.7797 19.7682 45.1911 19.5159 44.6025C17.3297 47.2091 14.555 48.4704 11.2757 48.4704C7.99647 48.4704 7.07155 47.7977 5.64213 46.4524C4.29679 45.107 3.54004 43.3413 3.54004 41.071C3.54004 38.8008 4.38087 36.7828 6.06255 35.2693C7.74422 33.8399 10.0145 33.0831 12.9574 33.0831C15.9003 33.0831 14.8913 33.0831 15.9003 33.3354C16.9093 33.5035 18.0024 33.6717 19.0955 33.9239V31.9059C19.0955 29.8038 18.6751 28.2903 17.7502 27.4495C16.8252 26.6087 15.3117 26.1883 13.2096 26.1883C11.1076 26.1883 11.1916 26.2723 10.1826 26.5246C9.17364 26.7768 8.16463 27.1132 7.15563 27.4495C6.8193 27.6177 6.48296 27.7018 6.14663 27.7858C5.97846 27.7858 5.81029 27.7858 5.72621 27.7858C5.30579 27.7858 5.13763 27.5336 5.13763 26.945V25.5997C5.13763 25.1793 5.13763 24.8429 5.30579 24.5907C5.55804 24.3384 5.81029 24.1702 6.06255 24.0021C7.07155 23.4976 8.24872 23.0772 9.59405 22.7408C10.9394 22.4045 12.4529 22.2363 13.9664 22.2363C17.3297 22.2363 19.7682 22.9931 21.2817 24.5066C22.7952 26.0201 23.636 28.2903 23.636 31.4014V40.4825L23.8042 40.5665ZM12.4529 44.8548C13.3778 44.8548 14.3027 44.6866 15.3117 44.3503C16.3207 44.014 17.2457 43.4254 18.0024 42.5845C18.4228 42.08 18.7592 41.4915 18.9273 40.8188C19.0955 40.1461 19.1796 39.3053 19.1796 38.3804V37.2032C18.3387 37.035 17.4979 36.8669 16.573 36.6987C15.7322 36.6146 14.8072 36.5305 13.9664 36.5305C12.1166 36.5305 10.6871 36.8669 9.76222 37.6236C8.8373 38.3804 8.41688 39.4735 8.41688 40.8188C8.41688 42.1641 8.75322 43.089 9.42589 43.7617C10.0986 44.4344 11.1076 44.7707 12.3688 44.7707L12.4529 44.8548ZM34.9032 47.8818C34.3987 47.8818 34.0624 47.7977 33.8101 47.6296C33.5579 47.4614 33.3897 47.041 33.2215 46.5365L26.663 24.8429C26.4948 24.5066 26.4108 24.0862 26.4108 23.7498C26.4108 23.3294 26.663 23.0772 27.0834 23.0772H29.8582C30.3627 23.0772 30.7831 23.1612 30.9513 23.3294C31.2035 23.4976 31.3717 23.918 31.5399 24.4225L36.2485 43.005L40.6209 24.4225C40.789 23.8339 40.9572 23.4976 41.1254 23.3294C41.4617 23.1612 41.8821 22.9931 42.2185 23.0772H44.4887C44.9932 23.0772 45.4136 23.1612 45.5818 23.3294C45.8341 23.4976 46.0022 23.918 46.0863 24.4225L50.5427 43.2572L55.4196 24.4225C55.5037 24.0021 55.6718 23.6657 56.0082 23.3294C56.3445 23.1612 56.6808 22.9931 57.1013 23.0772H59.7078C60.1283 23.0772 60.3805 23.3294 60.3805 23.7498C60.3805 24.1702 60.3805 24.0021 60.3805 24.1702C60.3805 24.4225 60.2964 24.6747 60.2123 24.8429L53.4857 46.5365C53.3175 47.1251 53.1493 47.4614 52.8971 47.6296C52.5607 47.7977 52.2244 47.9659 51.804 47.8818H49.3656C48.8611 47.8818 48.4407 47.8818 48.2725 47.6296C48.0202 47.4614 47.8521 47.041 47.768 46.5365L43.3956 28.4585L39.1074 46.5365C38.9392 47.1251 38.771 47.4614 38.6029 47.6296C38.3506 47.7977 38.0143 47.8818 37.5098 47.8818H35.0714H34.9032ZM70.8069 48.6386C69.3774 48.6386 67.948 48.4704 66.5186 48.1341C65.0892 47.7977 63.9961 47.4614 63.3234 47.041C62.903 46.7887 62.5667 46.5365 62.4826 46.2842C62.3985 46.032 62.3144 45.7797 62.3144 45.5275V44.098C62.3144 43.5095 62.5667 43.2572 62.9871 43.2572C63.1553 43.2572 63.3234 43.2572 63.4916 43.2572C63.6598 43.2572 63.912 43.4254 64.1643 43.5095C65.0892 43.9299 66.1823 44.2662 67.2754 44.5185C68.3685 44.7707 69.4615 44.8548 70.6387 44.8548C72.4045 44.8548 73.7498 44.5185 74.7588 43.9299C75.1792 43.6776 75.5996 43.2572 75.8519 42.7527C76.1041 42.2482 76.2723 41.7437 76.1882 41.2392C76.1882 40.9029 76.1882 40.4825 76.0201 40.1461C75.8519 39.8098 75.6837 39.4735 75.4315 39.2212C74.927 38.7167 74.002 38.2122 72.5726 37.7918L68.5366 36.5305C66.5186 35.8579 65.0051 34.9329 64.0802 33.6717C63.1553 32.4945 62.6508 31.0651 62.6508 29.6357C62.6508 28.4585 62.903 27.4495 63.4075 26.5246C63.912 25.5997 64.5847 24.8429 65.4255 24.2543C66.2664 23.5817 67.1913 23.1612 68.3684 22.8249C69.4615 22.4886 70.6387 22.3204 71.9 22.3204C73.1612 22.3204 73.1612 22.3204 73.7498 22.4045C74.4225 22.4045 75.0111 22.5727 75.5996 22.7408C76.1882 22.909 76.6927 22.9931 77.1972 23.1612C77.7017 23.3294 78.1221 23.4976 78.3744 23.6657C78.7107 23.8339 78.963 24.0862 79.2152 24.3384C79.3834 24.5907 79.4675 24.927 79.4675 25.2633V26.6087C79.4675 27.1973 79.2152 27.5336 78.7948 27.5336C78.4585 27.5336 78.0381 27.3654 77.7017 27.1973C76.0201 26.4405 74.1702 26.1042 72.3204 26.1042C70.7228 26.1042 69.4615 26.3564 68.6207 26.8609C67.7799 27.3654 67.2754 28.2063 67.2754 29.3834C67.2754 30.5606 67.5276 30.8128 68.1162 31.4014C68.7048 31.9059 69.7138 32.4945 71.2273 32.9149L75.1792 34.1762C77.1972 34.8489 78.6266 35.6897 79.5516 36.8669C80.3924 38.044 80.8128 39.3053 80.8128 40.8188C80.8128 42.3323 80.5606 43.089 80.0561 44.098C79.5516 45.023 78.8789 45.8638 78.0381 46.5365C77.1972 47.2091 76.1041 47.7136 74.927 48.1341C73.6657 48.5545 72.3204 48.7226 70.891 48.7226L70.8069 48.6386Z" fill="white"/>
<path fill-rule="evenodd" clip-rule="evenodd" d="M76.1044 62.2604C66.9393 69.0712 53.57 72.6867 42.0506 72.6867C30.5311 72.6867 11.4442 66.7168 0.429213 56.795C-0.411623 56.0382 0.429213 54.9451 1.35413 55.5337C13.2099 62.4286 27.8404 66.6327 42.9755 66.6327C58.1105 66.6327 64.4168 64.5307 74.675 60.1583C76.1885 59.4856 77.5338 61.1673 76.0203 62.2604H76.1044Z" fill="#FF9900"/>
<path fill-rule="evenodd" clip-rule="evenodd" d="M79.972 57.8884C78.7949 56.3749 72.2364 57.1317 69.2093 57.5521C68.2844 57.6362 68.2003 56.8794 68.9571 56.2908C74.1703 52.5912 82.8309 53.6843 83.8399 54.8614C84.8489 56.1227 83.5876 64.7833 78.6267 68.9875C77.87 69.6601 77.1132 69.3238 77.4495 68.483C78.5426 65.7082 81.0651 59.4019 79.888 57.9725L79.972 57.8884Z" fill="#FF9900"/>
</g>
</g>
<defs>
<clipPath id="clip0_1_12709">
<rect width="84.0835" height="84.0835" fill="white" transform="translate(0.0927734 0.207031)"/>
</clipPath>
</defs>
</svg>
