<?xml version="1.0" encoding="UTF-8"?>
<svg id="Layer_1" xmlns="http://www.w3.org/2000/svg" xmlns:xlink="http://www.w3.org/1999/xlink" version="1.1" viewBox="0 0 130 50">
  <!-- Generator: Adobe Illustrator 29.8.1, SVG Export Plug-In . SVG Version: 2.1.1 Build 2)  -->
  <defs>
    <style>
      .st0, .st1 {
        fill: none;
      }

      .st2, .st3, .st4, .st5, .st6 {
        fill-rule: evenodd;
      }

      .st2, .st7 {
        fill: #fff;
      }

      .st8 {
        fill: #dbdbdb;
      }

      .st9 {
        fill: url(#radial-gradient);
      }

      .st10 {
        fill: #05bad8;
      }

      .st11 {
        fill: #005083;
      }

      .st12, .st6 {
        fill: #606060;
      }

      .st13 {
        clip-path: url(#clippath-1);
      }

      .st14 {
        fill: url(#radial-gradient6);
      }

      .st14, .st15 {
        opacity: .5;
      }

      .st14, .st15, .st7 {
        isolation: isolate;
      }

      .st15 {
        fill: url(#radial-gradient5);
      }

      .st1 {
        stroke: #ccc;
        stroke-miterlimit: 10;
        stroke-width: 2px;
      }

      .st3 {
        fill: url(#radial-gradient7);
      }

      .st4 {
        fill: url(#radial-gradient9);
      }

      .st5 {
        fill: url(#radial-gradient8);
      }

      .st16 {
        opacity: .1;
      }

      .st17 {
        fill: url(#radial-gradient1);
      }

      .st18 {
        fill: url(#radial-gradient3);
      }

      .st19 {
        fill: url(#radial-gradient2);
      }

      .st20 {
        fill: url(#radial-gradient4);
      }

      .st21 {
        display: none;
      }

      .st22 {
        clip-path: url(#clippath);
      }

      .st7 {
        opacity: .6;
      }
    </style>
    <clipPath id="clippath">
      <path class="st0" d="M16.21,9.77c1.39-.82,3.1-.82,4.49,0l9.61,5.66c1.39.82,2.25,2.33,2.25,3.97v11.31c0,1.64-.86,3.15-2.25,3.97l-9.61,5.66c-1.39.82-3.1.82-4.49,0l-9.61-5.66c-1.39-.82-2.25-2.33-2.25-3.97v-11.31c0-1.64.86-3.15,2.25-3.97l9.61-5.66h0Z"/>
    </clipPath>
    <radialGradient id="radial-gradient" cx="29.17" cy="-1023.42" fx="29.17" fy="-1023.42" r="51.04" gradientTransform="translate(0 1030)" gradientUnits="userSpaceOnUse">
      <stop offset="0" stop-color="#282828"/>
      <stop offset=".36" stop-color="#242424"/>
      <stop offset=".64" stop-color="#1b1b1b"/>
      <stop offset=".88" stop-color="#0b0b0b"/>
      <stop offset="1" stop-color="#000"/>
    </radialGradient>
    <clipPath id="clippath-1">
      <path class="st0" d="M29.36,29.1h-1.1l.78.78c1.55,1.55,1.55,4.07,0,5.63s-4.07,1.55-5.63,0l-.78-.78v1.1c0,2.2-1.78,3.98-3.98,3.98s-3.98-1.78-3.98-3.98v-1.1l-.78.78c-1.55,1.55-4.07,1.55-5.63,0s-1.55-4.07,0-5.63l.78-.78h-1.1c-2.2,0-3.98-1.78-3.98-3.98s1.78-3.98,3.98-3.98h1.1l-.78-.78c-1.55-1.55-1.55-4.07,0-5.63s4.07-1.55,5.63,0l.78.78v-1.1c0-2.2,1.78-3.98,3.98-3.98,1.1,0,2.09.44,2.81,1.17.72.72,1.17,1.71,1.17,2.81v1.1l.78-.78c1.55-1.55,4.07-1.55,5.63,0s1.55,4.07,0,5.63l-.78.78h1.1c2.2,0,3.98,1.78,3.98,3.98,0,1.1-.44,2.09-1.17,2.81-.72.72-1.71,1.17-2.81,1.17h0Z"/>
    </clipPath>
    <radialGradient id="radial-gradient1" cx="11.15" cy="-997.33" fx="11.15" fy="-997.33" r="29.3" gradientTransform="translate(0 1030)" gradientUnits="userSpaceOnUse">
      <stop offset="0" stop-color="#0091b3"/>
      <stop offset="1" stop-color="#0091b3" stop-opacity="0"/>
    </radialGradient>
    <radialGradient id="radial-gradient2" cx="18.51" cy="10.55" fx="18.51" fy="10.55" r="14.36" gradientTransform="translate(0 52) scale(1 -1)" xlink:href="#radial-gradient1"/>
    <radialGradient id="radial-gradient3" cx="1420.43" cy="-797.44" fx="1420.43" fy="-797.44" r="3.23" gradientTransform="translate(-5238.09 2987.52) scale(3.7)" xlink:href="#radial-gradient1"/>
    <radialGradient id="radial-gradient4" cx="1284.83" cy="-700.56" fx="1284.83" fy="-700.56" r="3.61" gradientTransform="translate(-2712.98 -2973.62) rotate(90) scale(2.34 3.89)" gradientUnits="userSpaceOnUse">
      <stop offset=".16" stop-color="#0091b3"/>
      <stop offset="1" stop-color="#0091b3" stop-opacity="0"/>
    </radialGradient>
    <radialGradient id="radial-gradient5" cx="100.43" cy="-1183.91" fx="100.43" fy="-1183.91" r="14.75" gradientTransform="translate(-66.26 1489.3) scale(.88 1.23)" gradientUnits="userSpaceOnUse">
      <stop offset="0" stop-color="#fd9003"/>
      <stop offset="1" stop-color="#fd9003" stop-opacity="0"/>
    </radialGradient>
    <radialGradient id="radial-gradient6" cx="1391.84" cy="-563.4" fx="1391.84" fy="-563.4" r="3.48" gradientTransform="translate(-3903.57 1617.39) scale(2.82)" gradientUnits="userSpaceOnUse">
      <stop offset=".18" stop-color="#b601de"/>
      <stop offset="1" stop-color="#b601de" stop-opacity="0"/>
    </radialGradient>
    <radialGradient id="radial-gradient7" cx="633.12" cy="173.9" fx="633.12" fy="173.9" r="1.08" gradientTransform="translate(170.38 -671.12) rotate(90) scale(1.09 .91)" gradientUnits="userSpaceOnUse">
      <stop offset=".44" stop-color="#fff"/>
      <stop offset="1" stop-color="#fff" stop-opacity=".5"/>
    </radialGradient>
    <radialGradient id="radial-gradient8" cx="624.73" cy="177.43" fx="624.73" fy="177.43" r=".47" gradientTransform="translate(173.02 -660.73) rotate(90) scale(1.09 .91)" xlink:href="#radial-gradient7"/>
    <radialGradient id="radial-gradient9" cx="622.68" cy="167.75" fx="622.68" fy="167.75" r=".36" gradientTransform="translate(163.18 -659.38) rotate(90) scale(1.09 .91)" xlink:href="#radial-gradient7"/>
  </defs>
  <g>
    <path class="st10" d="M37.34,32.41v-1.61l6.83-9.68c.33-.47.69-.94,1.07-1.42.38-.47.76-.94,1.15-1.42l.24.77c-.64.04-1.28.06-1.92.07-.64,0-1.28.01-1.92.01h-5.45v-2.01h11.08v1.62l-6.71,9.52c-.36.5-.74,1-1.14,1.5-.4.5-.8,1-1.2,1.49l-.24-.77c.64-.04,1.28-.06,1.92-.07.64,0,1.28-.01,1.92-.01h5.51v2.01h-11.16s0,0,0,0Z"/>
    <path class="st10" d="M55.82,32.64c-1.07,0-2-.24-2.8-.73-.8-.49-1.42-1.17-1.86-2.05s-.66-1.9-.66-3.06.22-2.2.66-3.09c.44-.88,1.06-1.57,1.86-2.06.8-.49,1.73-.73,2.8-.73s2.01.24,2.81.73c.8.49,1.42,1.18,1.86,2.06.44.88.66,1.91.66,3.09s-.22,2.18-.66,3.06c-.44.88-1.06,1.56-1.86,2.05-.8.49-1.73.73-2.81.73ZM55.82,30.74c.68,0,1.24-.18,1.7-.53.46-.35.8-.83,1.02-1.43s.34-1.26.34-2-.11-1.42-.34-2.02c-.23-.6-.57-1.07-1.02-1.43-.46-.36-1.02-.53-1.7-.53s-1.24.18-1.69.53c-.45.36-.78.83-1.01,1.43s-.34,1.27-.34,2.02.11,1.4.34,2,.56,1.07,1.01,1.43c.45.35,1.01.53,1.69.53Z"/>
    <path class="st10" d="M63.52,36.69v-15.61h2.19v1.79h.15c.16-.27.37-.56.63-.86s.61-.56,1.05-.77c.43-.22.98-.32,1.64-.32.93,0,1.75.23,2.47.7.71.47,1.28,1.14,1.69,2.01s.62,1.92.62,3.13-.2,2.25-.61,3.13-.97,1.55-1.68,2.03-1.54.71-2.48.71c-.64,0-1.18-.11-1.61-.32-.43-.22-.78-.48-1.05-.78s-.48-.6-.64-.88h-.1v6.04h-2.25ZM68.69,30.72c.64,0,1.18-.17,1.62-.51.44-.34.78-.81,1.01-1.41.23-.6.34-1.28.34-2.05s-.12-1.45-.34-2.04-.56-1.05-1.01-1.38c-.44-.33-.98-.5-1.63-.5s-1.19.16-1.63.49-.78.78-1.01,1.37-.34,1.27-.34,2.07.12,1.48.35,2.07c.23.6.57,1.06,1.02,1.4s.99.5,1.62.5h0Z"/>
    <path class="st8" d="M76.79,32.41v-15.29h1.65l6.98,10.41c.19.28.41.61.64.98.24.38.48.78.74,1.22.26.44.51.89.76,1.36l-.22.05c-.03-.48-.06-.95-.08-1.42s-.03-.91-.04-1.33-.01-.78-.01-1.1v-10.19h1.45v15.29h-1.67l-6.51-9.68c-.24-.36-.49-.74-.74-1.14s-.53-.85-.84-1.36c-.3-.51-.66-1.09-1.06-1.76l.28-.07c.02.63.04,1.22.06,1.76.02.55.03,1.04.05,1.47s.02.8.02,1.1v9.69h-1.45Z"/>
    <path class="st8" d="M92.94,18.9c-.27,0-.51-.1-.71-.29-.2-.19-.3-.42-.3-.69s.1-.49.3-.68c.2-.19.43-.28.71-.28s.51.09.71.28c.2.19.3.42.3.68s-.1.5-.3.69-.43.29-.71.29ZM92.25,32.41v-11.33h1.38v11.33h-1.38Z"/>
    <path class="st8" d="M101.34,36.91c-.79,0-1.48-.11-2.09-.32s-1.11-.51-1.51-.89-.7-.82-.9-1.33l1.2-.54c.15.33.36.63.64.92.28.28.63.51,1.07.68.43.17.96.26,1.59.26,1.03,0,1.85-.26,2.46-.77s.92-1.3.92-2.34v-2.45h-.11c-.17.38-.41.74-.71,1.08s-.69.62-1.15.83c-.46.22-1.03.32-1.68.32-.91,0-1.72-.23-2.43-.68-.71-.46-1.27-1.1-1.67-1.94s-.6-1.84-.6-3.01.2-2.17.6-3.04c.4-.87.96-1.55,1.67-2.04s1.53-.73,2.46-.73c.66,0,1.23.12,1.7.35.47.23.86.53,1.16.89.3.36.54.73.7,1.1h.11v-2.17h1.33v11.54c0,.98-.21,1.79-.62,2.42s-.97,1.11-1.69,1.41-1.53.46-2.44.46h0,0ZM101.26,31.11c.73,0,1.35-.18,1.87-.53.52-.36.92-.86,1.2-1.52.28-.66.42-1.45.42-2.35s-.14-1.67-.41-2.35-.67-1.21-1.2-1.6-1.15-.58-1.88-.58-1.37.2-1.9.59c-.53.39-.93.93-1.21,1.61-.28.68-.42,1.46-.42,2.33s.14,1.66.42,2.32c.28.66.68,1.18,1.21,1.54.52.37,1.15.55,1.89.55h0s0,0,0,0Z"/>
    <path class="st8" d="M110.78,25.39v7.02h-1.38v-15.29h1.38v6.61h-.29c.31-.98.81-1.7,1.48-2.14.67-.44,1.44-.67,2.31-.67.77,0,1.45.16,2.05.49.59.32,1.05.8,1.39,1.42s.5,1.38.5,2.29v7.29h-1.38v-7.19c0-.94-.26-1.69-.79-2.23s-1.23-.81-2.11-.81c-.6,0-1.13.13-1.61.38-.48.25-.86.62-1.13,1.1s-.42,1.06-.42,1.73h0Z"/>
    <path class="st8" d="M125.49,21.08v1.2h-5.46v-1.2h5.46ZM121.78,18.3h1.38v11.46c0,.54.12.94.36,1.19.24.25.62.36,1.12.32.11,0,.24-.02.39-.04.15-.02.28-.04.41-.06l.23,1.19c-.15.04-.32.07-.5.09-.19.02-.37.03-.54.04-.9.05-1.59-.16-2.09-.64-.5-.47-.74-1.14-.74-2v-11.56h0Z"/>
  </g>
  <g class="st22">
    <g>
      <rect class="st9" x="-8.37" y="-4.75" width="52.91" height="52.91"/>
      <g>
        <g class="st21">
          <g class="st13">
            <g>
              <circle class="st17" cx="11.15" cy="32.67" r="29.3"/>
              <circle class="st19" cx="18.51" cy="8.55" r="14.36"/>
            </g>
          </g>
        </g>
        <circle class="st18" cx="17.89" cy="37.06" r="11.94"/>
        <ellipse class="st20" cx="12.3" cy="33.5" rx="14.02" ry="8.45" transform="translate(-23.13 29.26) rotate(-63)"/>
        <ellipse class="st15" cx="21.72" cy="32.96" rx="12.94" ry="18.12" transform="translate(-10.53 10.2) rotate(-21.41)"/>
        <circle class="st14" cx="20.86" cy="28.42" r="9.81"/>
      </g>
      <path class="st11" d="M-10.43,33.87s.06.07.1.09c-.03-.03-.07-.06-.1-.09Z"/>
      <g id="Moon">
        <path class="st2" d="M11.66,25.05c0-3.75,3.04-6.79,6.79-6.79,3.19,0,5.86,2.2,6.6,5.16.13.52.2,1.07.2,1.63,0,.25-.01.5-.04.74-.37,3.41-3.25,6.06-6.75,6.06-3.75,0-6.79-3.04-6.79-6.79h0Z"/>
        <g class="st16">
          <path class="st12" d="M18.31,18.98c.12,0,.12-.18,0-.18s-.12.18,0,.18Z"/>
          <path class="st12" d="M16.69,19.78c.12,0,.12-.18,0-.18s-.12.18,0,.18Z"/>
          <path class="st6" d="M13.92,27.61c.3,0,.58.22.82.39.2.14.41.36.51.58.03.06.04.12.06.19,0,.01.08.21.08.22,0,.12-.1.25-.18.34-.24.25-.62.07-.87-.08-.23-.14-.46-.31-.65-.49-.1-.09-.23-.17-.29-.29-.09-.15-.06-.33-.06-.52,0-.28-.36-.6.08-.66.17-.02.7.12.74.33h-.25Z"/>
          <path class="st6" d="M19.35,18.81c.08-.08.16-.03.25,0,.08.03.15.04.25.04.18,0,.34,0,.51.04.16.04.32.06.47.1.06.02.12.05.18.06.04,0,.08,0,.12,0,.02,0,.02.03.03.03.03,0,.06,0,.09,0,.15.03.3.07.44.12.07.02.13.02.19.06.06.04.15.08.21.12.22.16.46.3.67.51.19.19.39.37.59.55.05.04.08.1.13.14.05.04.1.06.15.11.1.11.18.22.27.34.16.23.37.43.5.68.06.12.12.24.19.36.05.08.09.17.12.25.03.06.08.14.09.19.03.09.03.17.05.26.01.04.04.06.05.1.01.05-.01.1,0,.15,0,.04.04.06.04.1.01.05-.01.1,0,.15,0,.04.04.06.05.1.01.05-.02.12,0,.17,0,.04.04.06.05.1,0,.04,0,.1,0,.15,0,.11.04.19.04.29,0,.09.02.22,0,.31,0,.04-.04.06-.05.1-.01.05.01.11,0,.16-.11.03-.08-.21-.08-.26,0-.11-.04-.16-.04-.27,0-.13-.05-.14-.13-.24-.03-.04-.11-.12-.12-.17-.01-.03,0-.09-.02-.13-.01-.04-.02-.07-.02-.12,0-.1,0-.15-.07-.22-.05-.05-.15-.1-.21-.12-.09-.02-.17-.02-.27-.04-.04,0-.06-.04-.1-.05-.05-.01-.11.02-.16,0-.05-.03-.11-.12-.12-.17-.03-.09,0-.16.03-.24.01-.03.03-.06.04-.08.02-.03.06-.06.07-.09.08-.14-.03-.37-.06-.49-.01-.05-.08-.19-.04-.23.04-.04.27,0,.32.02.03-.05-.02-.15-.04-.21-.02-.06-.05-.16-.09-.22-.07-.12-.21-.24-.33-.3-.08-.04-.14-.07-.15.05,0,.05,0,.08-.02.13-.02.03-.05.04-.06.08-.01.05.01.1,0,.15,0,.03-.03.06-.04.08-.02.1.01.21,0,.3-.03.2-.18.29-.35.33-.17.04-.35.09-.51.16-.19.08-.39.11-.58.05-.16-.05-.28-.14-.43-.22-.07-.04-.13-.05-.19-.08-.08-.03-.15-.06-.23-.08-.14-.04-.29-.06-.42-.14-.12-.07-.28-.16-.36-.28-.08-.11-.16-.33-.1-.47.04-.1.2-.19.28-.28.13-.15.09-.25,0-.4-.03-.06-.09-.13-.11-.19-.02-.08,0-.2,0-.28,0-.08.03-.13.07-.2.04-.06.14-.1.17-.16.03-.06,0-.08-.02-.13,0-.01-.03-.02-.03-.03-.02-.03,0-.06-.02-.08-.04-.09-.12-.08-.21-.1-.09-.02-.16-.01-.25.02-.05.02-.07.03-.12.04-.06,0-.09-.02-.13-.03-.1-.02-.16.05-.26.05-.08,0-.13-.03-.19-.09-.05-.05-.13-.14-.12-.22s.11-.13.17-.21h0s0,0,0,0Z"/>
          <path class="st6" d="M20.13,21.89s-.05.03-.07.03c-.06-.07-.14-.15-.22-.2-.12-.08-.18-.03-.21.1-.01.07.02.11.03.15.01.05,0,.11.06.15.08.05.31.02.28-.12l.12-.12h0Z"/>
          <path class="st6" d="M24.08,27.2s.04-.04.08-.04c.02.07.02.19,0,.26,0,.04-.03.06-.04.1,0,.04,0,.08,0,.12-.01.05-.05.13-.06.18-.02.08-.02.12-.05.2-.03.07-.05.15-.08.23-.03.07-.06.12-.1.18-.08.12-.14.25-.22.37-.14.22-.29.44-.5.62-.07.06-.15.1-.23.15-.03.02-.05.05-.07.06-.02.02-.06.02-.08.04-.06.05-.25.23-.33.19.06-.15.16-.31.23-.46.08-.17.24-.17.37-.29.2-.19-.13-.27-.25-.35-.11-.07-.11-.18-.11-.3,0-.11,0-.2-.04-.31-.01-.04-.04-.1-.04-.14,0-.03,0-.06,0-.08,0-.02-.01-.04-.03-.05-.03-.12.02-.19.06-.29.04-.1.06-.19.14-.27s.17-.05.28-.05c.07,0,.1.02.16.03.04.01.1.03.13.04.05,0,.1,0,.15.02.05.01.05.04.12.02.07-.02.14-.1.21-.12.1-.02.22.03.32,0,0-.01,0-.02-.03-.08h0Z"/>
          <path class="st6" d="M16.38,21.95c.12,0,.28-.14.35-.24.1-.14-.08-.28-.18-.35-.04-.03-.07-.05-.12-.07-.03-.01-.08-.05-.11-.05-.07,0-.1.17-.13.23-.09.18.05.31.19.42v.06h0Z"/>
          <path class="st6" d="M15.8,21.67s.02-.01.03-.02c.04.09-.02.18-.03.26-.06,0-.18-.11-.18-.17,0-.1.15-.11.22-.11l-.03.03h0Z"/>
          <path class="st6" d="M14.72,25.66c.03.15.24-.02.3-.07.04-.04.08-.07.1-.12.03-.06.03-.13.03-.2,0-.08.03-.14.03-.21s0-.16-.03-.23c-.04-.13-.14-.23-.25-.31-.06-.04-.12-.07-.19-.1-.08-.04-.08-.06-.16-.02-.1.05-.2.1-.27.17-.09.09-.17.17-.24.28-.08.14,0,.25.08.37.08.14.21.26.33.39.03.03.08.1.12.12.08.04.16-.03.15-.09h0Z"/>
          <path class="st6" d="M14.75,26.22s.02,0,.03,0c0,.04.09.17.03.21-.04.03-.11-.06-.13-.09-.04-.05-.08-.14-.03-.19.05-.05.15,0,.13.07h-.03,0Z"/>
          <path class="st6" d="M16.11,19.49c.04.05.17.07.23.06.08-.02.14-.05.21-.06.15-.03.35-.1.48-.18.19-.12.53-.45.2-.62-.13-.07-.3-.06-.45-.06-.08,0-.12.03-.2.03-.08,0-.15.03-.23.05-.14.03-.27.07-.4.13-.12.05-.21.14-.3.22-.11.11-.13.26-.01.38.07.07.13.05.22.05h.25,0Z"/>
          <path class="st6" d="M15.28,19.55s.03-.03.06-.03c.03.07-.14.18-.19.2-.08.04-.24.13-.27,0-.02-.09.08-.21.15-.25.09-.05.26,0,.28.11l-.03-.03h0Z"/>
          <path class="st6" d="M12.73,25.35s.02,0,.03,0c.04-.12-.02-.25-.03-.36,0-.12,0-.25,0-.37v-.37c0-.05,0-.1,0-.15,0-.02-.02-.04-.03-.07,0-.04,0-.08,0-.12,0-.06,0-.12,0-.18,0,0-.02-.06-.02-.07-.01-.03,0-.04-.02-.07-.06-.08-.16-.14-.26-.09-.08.04-.13.1-.21.13-.11.05-.16.11-.22.21-.05.09-.06.18-.09.28,0,.03-.03.03-.03.06,0,.03,0,.06,0,.09,0,.02-.02.04-.03.07,0,.02,0,.04,0,.06,0,.02-.01.03-.03.04-.01.05,0,.1,0,.15,0,.06-.03.12-.03.18,0,.07-.03.12-.03.18v.18c0,.12,0,.25,0,.37,0,.06.02.1.03.15.01.06.02.13.03.19,0,.04.05.09.06.13.01.06.02.09.06.15.07.1.11.14.21.19.1.05.24.03.34-.05.03-.03.09-.08.1-.11,0-.03,0-.06,0-.09,0-.03.03-.05.02-.1,0-.12-.03-.29,0-.4.01-.06.05-.12.07-.18.02-.07.02-.14.08-.03h0Z"/>
          <path class="st6" d="M12.88,26.92c.08.03.12-.16.12-.22,0-.05.02-.11-.03-.14-.03-.02-.12-.03-.16-.02-.1.03-.09.17-.09.25,0,.09.07.21.18.18l-.03-.06h0s0,0,0,0Z"/>
          <path class="st6" d="M23.42,27.04s0,.02,0,.03c.03,0,.05.03.07.03.03,0,.07,0,.1,0,.07,0,.12.02.18.03.03,0,.07,0,.11,0,.04,0,.06-.02.08-.02.07-.01.12,0,.18-.05.09-.07.16-.18.21-.27.07-.12.12-.24.12-.39,0-.06,0-.12-.03-.17-.04-.05-.06-.09-.08-.15-.06-.13-.11-.18-.25-.18-.13,0-.26.08-.37.14-.05.03-.1.07-.14.1-.04.03-.09.05-.12.1-.08.11-.09.25-.12.37-.02.06-.03.16-.01.23,0,.01.02.01.02.03,0,.02,0,.05,0,.07,0,.03.04.07.03.11h0,0Z"/>
          <path class="st6" d="M23.08,26.8c.08,0-.03.22-.12.21-.07,0-.14-.13-.16-.2-.08-.28.34-.3.33-.04l-.06.03h0Z"/>
          <path class="st6" d="M22.06,26.31c0-.06.07-.1.08-.16.01-.06-.01-.11-.05-.15-.03-.04-.08-.1-.13-.09-.05.01-.08.08-.12.11-.08.06-.22.12-.12.24.04.05.11.07.17.08.09.01.13-.01.2-.06l-.03.03h0Z"/>
          <path class="st6" d="M24.18,23.57c.11-.03.1.15.09.21-.05,0-.1.04-.15.04-.05,0-.14-.04-.18-.07-.09-.06-.14-.17-.08-.27.03-.06.18-.16.26-.12.07.04.1.2.1.27l-.03-.06h0Z"/>
          <path class="st6" d="M15.52,30.18c.03.06.05.08,0,.12-.04.04-.1.04-.15.02-.07-.02-.15-.11-.2-.17-.03-.03-.08-.1-.08-.14,0-.05.02-.08.05-.12.05-.07.13-.12.19-.18.09-.09.14-.04.21.05.06.07.1.14.15.21.01.02.06.1.06.12,0,.04-.01.08-.04.12-.05.07-.15.16-.23.18l.03-.21h0Z"/>
          <path class="st6" d="M14.79,29.93s.02,0,.03,0c.03-.08,0-.13-.08-.15-.07-.02-.17.01-.19.08-.01.06.05.12.09.15.07.05.14.06.15-.05v-.03h0Z"/>
          <path class="st6" d="M15.25,22.07s.03-.12.04-.15c.01-.04.04-.1.05-.15.02-.05.04-.1.05-.15.01-.06.04-.1.05-.15.02-.12-.11-.2-.22-.17-.09.02-.18.1-.25.15-.05.04-.06.03-.09.09-.03.05-.04.11-.05.16-.02.06-.03.09-.03.15,0,.06,0,.13,0,.18.07.29.39.1.45-.09v.13h0Z"/>
          <path class="st6" d="M14.32,20.07c.03.11-.17.18-.25.18-.08,0-.1,0-.13-.08-.03-.07-.04-.11,0-.18.06-.09.24-.15.35-.1.13.05.07.22-.04.24l.06-.06h0Z"/>
          <path class="st6" d="M15.65,22.28s.08.06.09.09c0,.03,0,.06,0,.09,0,.02.02.04.03.07s0,.06,0,.09c0,.03.03.06.03.09.01.06-.01.13,0,.18,0,.05.06.12.03.18-.03.05-.1.04-.15.04-.05,0-.1-.03-.15-.04-.06-.01-.14-.05-.2-.08-.09-.06-.18-.12-.2-.23-.02-.1,0-.26.02-.35.02-.08.06-.18.14-.23.08-.05.26-.02.34.02l.03.09h0Z"/>
          <path class="st6" d="M14.94,22.35v.02c.03-.15-.15-.13-.19-.02-.04.13.16.16.19.03v-.03Z"/>
          <path class="st6" d="M12.78,23.27c-.04.09-.06.17-.04.27.02.1.08.19.12.28.03.07.03.13.01.2-.02.09-.02.19,0,.28.02.1.05.21.06.32.01.12,0,.25,0,.37,0,.25.12.44.34.55.07.03.14.04.21.04.08,0,.11-.02.17-.08.06-.06.08-.13.12-.21.03-.07.06-.13.08-.2.03-.12-.02-.29.05-.39.02-.03.06-.05.09-.07.03-.03.06-.06.1-.09.08-.07.08-.14.12-.24.03-.08.07-.15.13-.21.08-.08.19-.13.26-.22.06-.07.07-.13.07-.22,0-.05,0-.12,0-.17-.02-.06-.04-.1-.05-.16,0-.07,0-.12.03-.19.03-.09.05-.17.05-.26-.01-.21-.13-.39-.24-.56-.05-.08-.1-.16-.11-.25-.02-.1.01-.22.04-.32.03-.11.09-.18.15-.27.06-.09.12-.19.2-.25.09-.07.17-.12.28-.14.04,0,.08-.02.12-.02.05,0,.1.02.15.03.21.02.39-.11.59-.12.08,0,.17.01.24.06.06.04.13.07.2.08.17.04.39-.06.52.07.05.05.06.12.11.17.09.08.21.11.32.13.17.04.34.06.5.12.16.06.3.17.46.23s.41.03.57-.02c.1-.03.24-.08.3-.17.03-.05.05-.1.09-.15.05-.05.1-.05.16-.06.2-.05.3-.19.34-.38.03-.13,0-.27.03-.4.03-.15.08-.29.14-.42.04-.1.07-.21.06-.32,0-.1-.02-.26-.12-.32-.08-.04-.18-.04-.27-.03-.15.01-.31.05-.46,0-.14-.04-.2-.14-.26-.26-.09-.16-.13-.34-.22-.5-.07-.12-.16-.23-.31-.24-.1,0-.17.05-.23.12-.08.1-.14.22-.22.32-.07.08-.14.18-.23.24-.15.11-.35.12-.52.19-.18.07-.33.2-.52.25-.25.06-.5.01-.76.04-.16.02-.29.06-.44.11-.12.05-.21.12-.33.18-.12.06-.21.13-.33.18s-.25.08-.37.13c-.12.05-.22.11-.34.14-.13.04-.27.11-.38.2-.11.09-.2.2-.26.33-.04.08-.06.16-.1.24-.04.08-.1.14-.16.21-.08.1-.17.18-.26.28-.1.12-.16.28-.24.41-.06.1-.08.21-.13.32s-.09.22-.15.32c-.03.06-.08.14-.09.21,0,.03.01.07.02.09.01.03.04.06.05.09.02.06,0,.14.05.19.04.04.08.03.13,0,.05-.03.09-.06.14-.07.03,0,.13-.05.2,0h0Z"/>
          <path class="st6" d="M18.06,19.46c.05-.06-.14.15-.15.18,0,.02,0,.04,0,.06,0,.04,0,.08-.02.11-.03.1-.11.19-.16.28-.02.04-.05.06-.08.09-.03.03-.04.06-.07.09-.09.09-.18.17-.25.27-.14.18-.15.39-.01.57.04.05.12.12.18.13.04,0,.08,0,.12,0,.07-.02.15-.03.22-.05.09-.02.15,0,.24.03.04.02.09.03.13.05.04.02.07.04.12.06.09.03.18,0,.27-.03.06-.02.12-.05.17-.08.07-.04.15-.06.23-.09.06-.03.12-.07.17-.1.04-.03.07-.08.1-.12.09-.1.06-.26.1-.39.04-.11.13-.2.15-.31.02-.1-.04-.21-.1-.29-.08-.09-.2-.13-.31-.14-.09,0-.18,0-.26,0-.06,0-.12-.03-.18-.06-.07-.03-.12-.07-.18-.1-.06-.03-.1-.07-.16-.1-.06-.03-.1-.05-.16-.06-.06,0-.09.03-.12,0h0Z"/>
          <path class="st6" d="M16.12,20.14c-.02-.09-.04-.17-.14-.19-.05,0-.13,0-.18,0-.09.02-.15.08-.22.12-.08.05-.24.1-.23.21.01.1.13.16.2.21.08.06.14.14.25.13.12-.02.21-.11.26-.21.03-.06.08-.12.1-.19.01-.05,0-.15-.06-.17l.02.07h0,0Z"/>
          <path class="st6" d="M13.73,24.18c-.01-.06-.03-.12-.1-.13-.04,0-.09,0-.12,0-.06.01-.1.05-.15.08-.05.03-.16.06-.15.14,0,.07.09.11.14.14.06.04.09.1.17.09s.14-.07.17-.14c.02-.04.05-.08.07-.13,0-.03,0-.1-.04-.11l.02.05h0Z"/>
          <path class="st6" d="M12.33,23.84s-.04-.08-.07-.1c-.03.03-.07.05-.1.07-.06.06-.13.16-.13.24,0,.06,0,.12,0,.18,0,.08-.02.16-.03.24,0,.16-.02.3.12.4.09.06.19.06.27-.01.09-.09.12-.19.15-.32.01-.06.01-.12.02-.18,0-.05.02-.1.04-.15.03-.11.04-.23-.03-.33-.06-.1-.12-.16-.24-.04h0Z"/>
          <path class="st6" d="M20.87,19.86c-.1.02-.2.05-.3.08,0,.1-.05.18-.01.27.05.12.16.21.2.33.08.24-.11.45-.14.68-.05.33.41.3.6.32.14.01.28.03.4.1.14.08.27.15.43.18.15.03.32-.03.44-.11.14-.08.26-.24.32-.4.03-.1,0-.23-.03-.33-.05-.14-.16-.22-.26-.32-.07-.08-.13-.17-.2-.24-.09-.1-.18-.2-.27-.3-.14-.16-.29-.32-.48-.43-.14-.07-.27-.1-.42-.08-.13.02-.26.08-.3.23h0Z"/>
        </g>
      </g>
      <path class="st7" d="M26.51,39.68c0,1.29-1.05,2.34-2.34,2.34h-11.22v-.05c-.16.03-.32.05-.49.05-1.53,0-2.78-1.25-2.78-2.78s1.25-2.78,2.78-2.78c.17,0,.34.02.5.05,0-.07,0-.14,0-.21,0-2.26,1.83-4.09,4.09-4.09,1.7,0,3.16,1.04,3.78,2.52.19-.05.39-.08.6-.08,1.32,0,2.39,1.07,2.39,2.39,0,.11,0,.23-.02.34.13-.02.26-.03.39-.03,1.29,0,2.34,1.05,2.34,2.34h0Z"/>
      <g>
        <path class="st3" d="M13.31,18.94c-.4,0-1.13.75-1.13,1.12,0-.37-.73-1.12-1.13-1.12.4,0,1.13-.75,1.13-1.12,0,.37.73,1.12,1.13,1.12Z"/>
        <path class="st5" d="M12.1,20.19c-.18,0-.5.33-.5.49,0-.16-.32-.49-.5-.49.18,0,.5-.33.5-.49,0,.16.32.49.5.49Z"/>
        <path class="st4" d="M10.95,19.3c-.14,0-.38.25-.38.38,0-.13-.24-.38-.38-.38.14,0,.38-.25.38-.38,0,.13.24.38.38.38Z"/>
      </g>
    </g>
  </g>
  <path class="st1" d="M16.21,9.67c1.39-.82,3.1-.82,4.49,0l9.61,5.66c1.39.82,2.25,2.33,2.25,3.97v11.31c0,1.64-.86,3.15-2.25,3.97l-9.61,5.66c-1.39.82-3.1.82-4.49,0l-9.61-5.66c-1.39-.82-2.25-2.33-2.25-3.97v-11.31c0-1.64.86-3.15,2.25-3.97l9.61-5.66Z"/>
</svg>